<svg width="36" height="36" viewBox="0 0 36 36" fill="none" xmlns="http://www.w3.org/2000/svg">
<g id="clarity:date-solid" clip-path="url(#clip0_473_1618)">
<path id="Vector" d="M32.2503 6.00012H28.2503V9.00012C28.2503 9.28902 28.1934 9.5751 28.0828 9.84202C27.9722 10.1089 27.8102 10.3515 27.6059 10.5558C27.4016 10.76 27.1591 10.9221 26.8922 11.0326C26.6252 11.1432 26.3392 11.2001 26.0503 11.2001C25.7613 11.2001 25.4753 11.1432 25.2084 11.0326C24.9414 10.9221 24.6989 10.76 24.4946 10.5558C24.2903 10.3515 24.1283 10.1089 24.0177 9.84202C23.9072 9.5751 23.8503 9.28902 23.8503 9.00012V6.00012H12.2003V9.00012C12.2003 9.58359 11.9685 10.1432 11.5559 10.5557C11.1433 10.9683 10.5837 11.2001 10.0003 11.2001C9.41678 11.2001 8.8572 10.9683 8.44462 10.5557C8.03204 10.1432 7.80026 9.58359 7.80026 9.00012V6.00012H3.80026C3.56228 5.99741 3.32618 6.04245 3.10591 6.13258C2.88565 6.22271 2.68569 6.35609 2.51787 6.52484C2.35005 6.69359 2.21778 6.89428 2.12887 7.11505C2.03996 7.33581 1.99623 7.57216 2.00026 7.81012V30.1901C1.99628 30.4239 2.0384 30.6561 2.1242 30.8736C2.21 31.0911 2.33781 31.2895 2.50032 31.4576C2.66283 31.6257 2.85686 31.7601 3.07132 31.8532C3.28579 31.9463 3.51649 31.9962 3.75026 32.0001H32.2503C32.484 31.9962 32.7147 31.9463 32.9292 31.8532C33.1437 31.7601 33.3377 31.6257 33.5002 31.4576C33.6627 31.2895 33.7905 31.0911 33.8763 30.8736C33.9621 30.6561 34.0042 30.4239 34.0003 30.1901V7.81012C34.0042 7.57635 33.9621 7.3441 33.8763 7.12662C33.7905 6.90913 33.6627 6.71069 33.5002 6.54261C33.3377 6.37452 33.1437 6.2401 32.9292 6.14702C32.7147 6.05394 32.484 6.00402 32.2503 6.00012ZM10.0003 26.0001H8.00026V24.0001H10.0003V26.0001ZM10.0003 21.0001H8.00026V19.0001H10.0003V21.0001ZM10.0003 16.0001H8.00026V14.0001H10.0003V16.0001ZM16.0003 26.0001H14.0003V24.0001H16.0003V26.0001ZM16.0003 21.0001H14.0003V19.0001H16.0003V21.0001ZM16.0003 16.0001H14.0003V14.0001H16.0003V16.0001ZM22.0003 26.0001H20.0003V24.0001H22.0003V26.0001ZM22.0003 21.0001H20.0003V19.0001H22.0003V21.0001ZM22.0003 16.0001H20.0003V14.0001H22.0003V16.0001ZM28.0003 26.0001H26.0003V24.0001H28.0003V26.0001ZM28.0003 21.0001H26.0003V19.0001H28.0003V21.0001ZM28.0003 16.0001H26.0003V14.0001H28.0003V16.0001Z" fill="white"/>
<path id="Vector_2" d="M10 10C10.2652 10 10.5196 9.89464 10.7071 9.70711C10.8946 9.51957 11 9.26522 11 9V3C11 2.73478 10.8946 2.48043 10.7071 2.29289C10.5196 2.10536 10.2652 2 10 2C9.73478 2 9.48043 2.10536 9.29289 2.29289C9.10536 2.48043 9 2.73478 9 3V9C9 9.26522 9.10536 9.51957 9.29289 9.70711C9.48043 9.89464 9.73478 10 10 10Z" fill="white"/>
<path id="Vector_3" d="M26 10C26.2652 10 26.5196 9.89464 26.7071 9.70711C26.8946 9.51957 27 9.26522 27 9V3C27 2.73478 26.8946 2.48043 26.7071 2.29289C26.5196 2.10536 26.2652 2 26 2C25.7348 2 25.4804 2.10536 25.2929 2.29289C25.1054 2.48043 25 2.73478 25 3V9C25 9.26522 25.1054 9.51957 25.2929 9.70711C25.4804 9.89464 25.7348 10 26 10Z" fill="white"/>
</g>
<defs>
<clipPath id="clip0_473_1618">
<rect width="36" height="36" fill="white"/>
</clipPath>
</defs>
</svg>
