<svg width="48" height="48" viewBox="0 0 48 48" fill="none" xmlns="http://www.w3.org/2000/svg">
<g id="fluent:person-48-filled">
<path id="Vector" d="M24 4C18.477 4 14 8.477 14 14C14 19.523 18.477 24 24 24C29.523 24 34 19.523 34 14C34 8.477 29.523 4 24 4ZM12.25 28C11.123 28 10.0422 28.4476 9.24515 29.2444C8.44815 30.0413 8.00027 31.122 8 32.249V33C8 36.755 9.942 39.567 12.92 41.38C15.85 43.163 19.786 44 24 44C28.214 44 32.15 43.163 35.08 41.38C38.058 39.567 40 36.755 40 33V32.249C39.9997 31.122 39.5518 30.0413 38.7548 29.2444C37.9578 28.4476 36.877 28 35.75 28H12.25Z" fill="black"/>
</g>
</svg>
