<svg width="33" height="33" viewBox="0 0 33 33" fill="none" xmlns="http://www.w3.org/2000/svg">
<path id="Notice" d="M16.5188 3.65571C23.5691 3.65571 29.3056 9.39222 29.3056 16.4426C29.3056 23.493 23.5691 29.2295 16.5188 29.2295C9.46839 29.2295 3.73188 23.493 3.73188 16.4426C3.73188 9.39222 9.46839 3.65571 16.5188 3.65571ZM16.5188 0.458984C7.69102 0.458984 0.535156 7.61485 0.535156 16.4426C0.535156 25.2703 7.69102 32.4262 16.5188 32.4262C25.3465 32.4262 32.5024 25.2703 32.5024 16.4426C32.5024 7.61485 25.3465 0.458984 16.5188 0.458984ZM18.1171 21.2377H14.9204V24.4344H18.1171V21.2377ZM14.9204 18.041H18.1171L18.9163 8.45079H14.1212L14.9204 18.041Z" fill="#F37500"/>
</svg>
