<svg width="33" height="27" viewBox="0 0 33 27" fill="none" xmlns="http://www.w3.org/2000/svg">
<path id="book" d="M16.5391 4.65201C16.5391 4.65201 14.3014 1.72168 9.08011 1.72168C3.8588 1.72168 1.62109 4.65201 1.62109 4.65201V25.1643C1.62109 25.1643 3.8588 23.6991 9.08011 23.6991C14.3014 23.6991 16.5391 25.1643 16.5391 25.1643M16.5391 4.65201V25.1643M16.5391 4.65201C16.5391 4.65201 18.7768 1.72168 23.9981 1.72168C29.2195 1.72168 31.4572 4.65201 31.4572 4.65201V25.1643C31.4572 25.1643 29.2195 23.6991 23.9981 23.6991C18.7768 23.6991 16.5391 25.1643 16.5391 25.1643" stroke="url(#paint0_linear_164_1797)" stroke-width="2" stroke-linecap="round" stroke-linejoin="round"/>
<defs>
<linearGradient id="paint0_linear_164_1797" x1="16.5391" y1="1.72168" x2="16.5391" y2="25.1643" gradientUnits="userSpaceOnUse">
<stop/>
<stop offset="1" stop-color="#666666"/>
</linearGradient>
</defs>
</svg>
