<svg width="33" height="28" viewBox="0 0 33 28" fill="none" xmlns="http://www.w3.org/2000/svg">
<path id="News" d="M6.51924 7.76198C6.51924 7.49024 6.62449 7.22963 6.81184 7.03748C6.99918 6.84533 7.25327 6.73739 7.51822 6.73739H21.5039C21.7688 6.73739 22.0229 6.84533 22.2103 7.03748C22.3976 7.22963 22.5028 7.49024 22.5028 7.76198C22.5028 8.03371 22.3976 8.29432 22.2103 8.48647C22.0229 8.67862 21.7688 8.78657 21.5039 8.78657H7.51822C7.25327 8.78657 6.99918 8.67862 6.81184 8.48647C6.62449 8.29432 6.51924 8.03371 6.51924 7.76198ZM17.508 12.8849C17.243 12.8849 16.9889 12.9929 16.8016 13.185C16.6142 13.3772 16.509 13.6378 16.509 13.9095C16.509 14.1813 16.6142 14.4419 16.8016 14.634C16.9889 14.8262 17.243 14.9341 17.508 14.9341H21.5039C21.7688 14.9341 22.0229 14.8262 22.2103 14.634C22.3976 14.4419 22.5028 14.1813 22.5028 13.9095C22.5028 13.6378 22.3976 13.3772 22.2103 13.185C22.0229 12.9929 21.7688 12.8849 21.5039 12.8849H17.508ZM16.509 20.0571C16.509 19.7853 16.6142 19.5247 16.8016 19.3326C16.9889 19.1404 17.243 19.0325 17.508 19.0325H21.5039C21.7688 19.0325 22.0229 19.1404 22.2103 19.3326C22.3976 19.5247 22.5028 19.7853 22.5028 20.0571C22.5028 20.3288 22.3976 20.5894 22.2103 20.7816C22.0229 20.9737 21.7688 21.0816 21.5039 21.0816H17.508C17.243 21.0816 16.9889 20.9737 16.8016 20.7816C16.6142 20.5894 16.509 20.3288 16.509 20.0571ZM7.51822 12.8849C7.25327 12.8849 6.99918 12.9929 6.81184 13.185C6.62449 13.3772 6.51924 13.6378 6.51924 13.9095V20.0571C6.51924 20.3288 6.62449 20.5894 6.81184 20.7816C6.99918 20.9737 7.25327 21.0816 7.51822 21.0816H13.5121C13.777 21.0816 14.0311 20.9737 14.2185 20.7816C14.4058 20.5894 14.511 20.3288 14.511 20.0571V13.9095C14.511 13.6378 14.4058 13.3772 14.2185 13.185C14.0311 12.9929 13.777 12.8849 13.5121 12.8849H7.51822ZM8.51719 19.0325V14.9341H12.5131V19.0325H8.51719ZM0.525391 4.6882C0.525391 3.60125 0.946386 2.55882 1.69576 1.79023C2.44514 1.02163 3.46151 0.589844 4.52129 0.589844H24.5008C25.5606 0.589844 26.577 1.02163 27.3263 1.79023C28.0757 2.55882 28.4967 3.60125 28.4967 4.6882V6.73739C29.5565 6.73739 30.5729 7.16918 31.3222 7.93777C32.0716 8.70636 32.4926 9.74879 32.4926 10.8357V22.1062C32.4926 23.4649 31.9664 24.768 31.0296 25.7287C30.0929 26.6895 28.8225 27.2292 27.4977 27.2292H5.52027C4.19554 27.2292 2.92508 26.6895 1.98836 25.7287C1.05164 24.768 0.525391 23.4649 0.525391 22.1062V4.6882ZM26.4988 4.6882C26.4988 4.14473 26.2883 3.62351 25.9136 3.23922C25.5389 2.85492 25.0307 2.63902 24.5008 2.63902H4.52129C3.9914 2.63902 3.48322 2.85492 3.10853 3.23922C2.73384 3.62351 2.52334 4.14473 2.52334 4.6882V22.1062C2.52334 22.9215 2.83909 23.7033 3.40112 24.2797C3.96315 24.8562 4.72543 25.18 5.52027 25.18H27.4977C28.2926 25.18 29.0548 24.8562 29.6169 24.2797C30.1789 23.7033 30.4947 22.9215 30.4947 22.1062V10.8357C30.4947 10.2923 30.2842 9.77105 29.9095 9.38676C29.5348 9.00246 29.0266 8.78657 28.4967 8.78657V22.1062C28.4967 22.378 28.3915 22.6386 28.2041 22.8307C28.0168 23.0229 27.7627 23.1308 27.4977 23.1308C27.2328 23.1308 26.9787 23.0229 26.7913 22.8307C26.604 22.6386 26.4988 22.378 26.4988 22.1062V4.6882Z" fill="url(#paint0_linear_164_1800)"/>
<defs>
<linearGradient id="paint0_linear_164_1800" x1="16.509" y1="0.589844" x2="16.509" y2="27.2292" gradientUnits="userSpaceOnUse">
<stop/>
<stop offset="1" stop-color="#666666"/>
</linearGradient>
</defs>
</svg>
